<?xml version="1.0" ?>
<mxfile host="app.diagrams.net" modified="2025-09-01T15:44:50.229326" agent="Professional Archetype Generator" version="2.0">
  <diagram name="PaymentSystem - Microservices" id="ff4371cc-4ec3-4a1e-ab52-ddb6873ee703">
    <mxGraphModel dx="1000" dy="700" grid="1" gridSize="10" guides="1" tooltips="1" connect="1">
      <root>
        <mxCell id="0"/>
        <mxCell id="1" parent="0"/>
        <mxCell id="2" value="PaymentSystem" style="shape=hexagon;perimeter=hexagonPerimeter2;whiteSpace=wrap;html=1;fixedSize=1;fillColor=#FD79A8;strokeColor=#E84393;strokeWidth=2;fontSize=11;fontFamily=Helvetica;fontColor=#2c3e50;align=center;verticalAlign=middle;spacing=2;shadow=1;glass=0;" vertex="1" parent="1">
          <mxGeometry x="100" y="350" width="110" height="80" as="geometry"/>
        </mxCell>
        <mxCell id="3" value="PaymentSystem API" style="whiteSpace=wrap;html=1;fillColor=#74B9FF;strokeColor=#0984e3;strokeWidth=2;rounded=1;arcSize=12;fontSize=11;fontFamily=Helvetica;fontColor=#2c3e50;align=center;verticalAlign=middle;spacing=2;shadow=1;glass=0;" vertex="1" parent="1">
          <mxGeometry x="100" y="100" width="90" height="60" as="geometry"/>
        </mxCell>
        <mxCell id="4" value="PaymentSystem DB" style="shape=cylinder3;whiteSpace=wrap;html=1;boundedLbl=1;backgroundOutline=1;size=15;fillColor=#6C5CE7;strokeColor=#5F3DC4;strokeWidth=2;fontSize=11;fontFamily=Helvetica;fontColor=#2c3e50;align=center;verticalAlign=middle;spacing=2;shadow=1;glass=0;" vertex="1" parent="1">
          <mxGeometry x="850" y="300" width="100" height="120" as="geometry"/>
        </mxCell>
        <mxCell id="5" value="Cache" style="rhombus;whiteSpace=wrap;html=1;fillColor=#FDCB6E;strokeColor=#E17055;strokeWidth=2;fontSize=11;fontFamily=Helvetica;fontColor=#2c3e50;align=center;verticalAlign=middle;spacing=2;shadow=1;glass=0;" vertex="1" parent="1">
          <mxGeometry x="850" y="450" width="80" height="80" as="geometry"/>
        </mxCell>
        <mxCell id="6" value="REST API" style="edgeStyle=orthogonalEdgeStyle;rounded=0;orthogonalLoop=1;jettySize=auto;html=1;strokeColor=#4ECDC4;strokeWidth=2;endArrow=classic;fontSize=10;fontColor=#2c3e50;" edge="1" parent="1" source="2" target="3">
          <mxGeometry relative="1" as="geometry"/>
        </mxCell>
        <mxCell id="7" value="SQL" style="edgeStyle=orthogonalEdgeStyle;rounded=0;orthogonalLoop=1;jettySize=auto;html=1;strokeColor=#4ECDC4;strokeWidth=2;endArrow=classic;fontSize=10;fontColor=#2c3e50;" edge="1" parent="1" source="3" target="4">
          <mxGeometry relative="1" as="geometry"/>
        </mxCell>
        <mxCell id="8" value="HTTP" style="edgeStyle=orthogonalEdgeStyle;rounded=0;orthogonalLoop=1;jettySize=auto;html=1;strokeColor=#4ECDC4;strokeWidth=2;endArrow=classic;fontSize=10;fontColor=#2c3e50;" edge="1" parent="1" source="4" target="5">
          <mxGeometry relative="1" as="geometry"/>
        </mxCell>
      </root>
    </mxGraphModel>
  </diagram>
</mxfile>
